PathFileType	4	(X/Y/Z)	D:\TRACE\spotREDO_2-26-24\spot_justBody_Motion_1_4-platform.trc
DataRate	CameraRate	NumFrames	NumMarkers	Units	OrigDataRate	OrigDataStartFrame	OrigNumFrames
100.00	100.00	      24	5	mm	100.00	2626	      7000
Frame#	Time	Left_Front			Right_Front			Left_Aft			Right_Aft			Post			
		X1	Y1	Z1	X2	Y2	Z2	X3	Y3	Z3	X4	Y4	Z4	X5	Y5	Z5	

2626	26.250	-722.15448	-23.61246	-580.48248	692.50238	-12.22188	-495.90585	-793.84100	25.13144	637.71967	776.55170	32.19944	640.95612	-12.28039	589.82965	-1007.46283	
2627	26.260	-721.49860	-23.46120	-580.39734	693.32660	-11.84879	-495.73706	-792.94214	24.99776	637.85187	777.41345	32.07281	641.07874	-11.22727	590.12927	-1007.37451	
2628	26.270	-720.54047	-23.28684	-580.21960	694.02094	-11.72917	-495.77869	-792.32794	24.80134	637.83594	778.07983	31.73463	641.18066	-9.70941	590.51147	-1006.69006	
2629	26.280	-719.88153	-23.03222	-580.10962	695.01563	-11.65695	-495.69263	-791.31671	24.34780	638.06299	779.18597	31.07867	641.02484	-9.19963	590.69818	-1006.89197	
2630	26.290	-718.87286	-22.91763	-580.14050	695.62836	-11.50488	-495.65735	-790.32739	23.99105	638.16711	779.77661	31.03861	641.26971	-9.44154	591.28381	-1006.33881	
2631	26.300	-717.93073	-22.66711	-580.04694	696.65381	-11.32652	-495.79309	-789.59167	24.00426	638.08484	780.31726	30.98934	641.27032	-8.66950	591.77515	-1005.96118	
2632	26.310	-717.29614	-22.35954	-580.04291	697.30042	-10.83455	-495.66852	-788.76947	23.79389	638.10266	781.62640	30.60996	641.34924	-7.89477	591.97791	-1005.56970	
2633	26.320	-716.32776	-22.14816	-579.89844	698.19043	-10.69040	-495.66232	-787.77142	23.51140	638.22919	781.96173	30.48212	641.35205	-7.10508	592.41309	-1005.06854	
2634	26.330	-715.59863	-22.14361	-579.94293	699.28107	-10.73504	-495.65317	-787.02081	23.29956	638.26990	783.15253	30.11952	641.19818	-6.22698	592.82678	-1004.81158	
2635	26.340	-714.49249	-21.87459	-579.92139	699.90491	-10.73860	-495.53036	-786.07556	23.00319	638.34747	784.15735	30.18841	641.52661	-5.32612	593.18231	-1004.38544	
2636	26.350	-713.84204	-21.45725	-579.93823	700.79797	-10.31401	-495.40680	-785.44208	22.93454	638.37549	784.93097	30.13000	641.63611	-4.64892	593.49841	-1004.37524	
2637	26.360	-713.06366	-21.27095	-579.74615	701.99133	-10.03983	-495.32904	-784.53668	22.57368	638.32428	785.94232	29.81106	641.68390	-4.04869	594.19635	-1004.08282	
2638	26.370	-712.10394	-20.90851	-579.76892	702.71033	-9.91061	-495.14047	-783.39624	22.46950	638.66510	786.87878	29.66738	641.78674	-3.28990	594.71582	-1003.98071	
2639	26.380	-710.99658	-20.59957	-579.69287	703.66583	-9.66157	-495.05725	-782.64276	22.07531	638.88397	787.79565	29.13324	641.61511	-2.17045	595.17432	-1003.78900	
2640	26.390	-710.37061	-20.49680	-579.75580	704.74414	-9.42853	-494.90460	-781.75647	21.77095	638.93243	788.87585	28.82193	641.78790	-1.39436	595.26953	-1003.60828	
2641	26.400	-709.27545	-20.03806	-579.57153	705.43988	-9.18505	-495.02505	-780.83038	21.48424	638.92181	789.57111	28.82921	642.01117	-0.64377	595.74292	-1003.49219	
2642	26.410	-708.54382	-19.66313	-579.46271	706.33136	-8.97083	-495.09003	-779.92487	21.13088	638.90771	790.36816	28.59737	642.12744	0.75112	596.50824	-1003.04608	
2643	26.420	-707.54211	-19.55899	-579.42609	707.14587	-8.60553	-494.83630	-779.03168	20.90353	638.95972	791.49774	28.25803	642.14984	1.54361	596.85541	-1002.44641	
2644	26.430	-706.59943	-19.25551	-579.47400	708.17438	-8.27749	-494.79996	-778.00940	20.68780	638.98663	792.06891	27.89986	642.10840	2.11495	597.40192	-1002.05920	
2645	26.440	-705.59296	-18.92781	-579.23816	709.07745	-7.98600	-494.80301	-777.20850	20.43800	638.99475	793.07098	27.56109	642.17938	3.31118	597.97723	-1001.49731	
2646	26.450	-704.76733	-18.72730	-579.17908	709.74200	-7.68672	-494.92307	-776.31659	20.17725	639.11896	794.28662	27.34444	642.33533	4.44074	598.24921	-1000.80792	
2647	26.460	-703.71179	-18.26692	-579.24719	711.06567	-7.54849	-494.85211	-775.20044	19.55872	639.23126	794.95917	27.03002	642.41669	5.15137	598.99286	-1000.54565	
2648	26.470	-702.81891	-18.01046	-579.02777	711.89954	-7.25450	-494.61960	-774.26624	19.49844	639.57123	796.07501	26.57060	642.58075	6.05581	599.39539	-999.93347	
2649	26.480	-702.24243	-17.67247	-579.00958	712.62787	-7.01590	-494.53012	-773.39679	19.26530	639.63318	796.90186	26.43083	642.68341	6.95752	600.01306	-999.41241	
